<?xml version="1.0" encoding="iso-8859-1"?>
<!-- Generator: Adobe Illustrator 19.0.0, SVG Export Plug-In . SVG Version: 6.00 Build 0)  -->
<svg version="1.1" id="Layer_1" xmlns="http://www.w3.org/2000/svg" xmlns:xlink="http://www.w3.org/1999/xlink" x="0px" y="0px"
	 viewBox="0 0 511.999 511.999" style="enable-background:new 0 0 511.999 511.999;" xml:space="preserve">
<path style="fill:#F9DCA4;" d="M465.84,390.727c0,0-1.192,12.963-4.016,30.607c-2.384,14.871-5.936,33.054-10.905,49.594
	c-5.02,16.665-11.482,31.636-19.664,39.818c-8.182-8.182-14.645-23.153-19.652-39.818c-4.969-16.54-8.521-34.723-10.905-49.594
	c-2.824-17.644-4.016-30.607-4.016-30.607L465.84,390.727L465.84,390.727z"/>
<path style="fill:#E7C080;" d="M465.835,390.729c0,0-1.192,12.963-4.016,30.607h-61.126c-2.824-17.644-4.016-30.607-4.016-30.607
	L465.835,390.729L465.835,390.729z"/>
<path style="fill:#EC589B;" d="M450.92,470.927c-5.02,16.665-11.482,31.636-19.664,39.818c-8.182-8.182-14.645-23.153-19.652-39.818
	H450.92z"/>
<path style="fill:#778082;" d="M502.46,56.071c0,0,25.95,76.033-10.284,147.565c-16.89,3.344-32.045,7.849-42.825-2.93
	c-10.78-10.78-0.294-56.64-16.745-56.64c14.263-0.077-23.692-62.46-12.535-69.687C439.884,61.544,469.327,44.193,502.46,56.071z"/>
<path style="fill:#EC589B;" d="M492.168,203.634v84.505h-119.14v-84.505c0-19.865,9.725-37.459,24.684-48.276
	c9.801-7.115,21.848-11.294,34.886-11.294c12.875,0,24.809,4.078,34.547,11.043c2.711,1.92,5.245,4.066,7.58,6.413
	C485.505,172.299,492.168,187.195,492.168,203.634z"/>
<path style="fill:#D3468D;" d="M445.442,145.473c-4.137-0.91-8.432-1.403-12.841-1.403l0,0c-32.898,0-59.568,26.669-59.568,59.568
	v84.502h25.684v-84.502C398.717,175.149,418.72,151.347,445.442,145.473z"/>
<polygon style="fill:#EAA0E3;" points="501.98,391.983 363.22,391.983 373.033,288.139 492.167,288.139 "/>
<g>
	<circle style="fill:#F9DCA4;" cx="432.2" cy="72.031" r="72.031"/>
	<path style="fill:#F9DCA4;" d="M467.146,155.107c-10.353,5.76-22.274,9.035-34.949,9.035c-12.499,0-24.245-3.187-34.485-8.784
		c9.801-7.115,21.848-11.294,34.886-11.294C445.473,144.064,457.408,148.142,467.146,155.107z"/>
</g>
<path style="fill:#E7C080;" d="M392.962,72.035c0-34.14,23.758-62.711,55.636-70.138C443.328,0.67,437.844,0,432.2,0
	c-39.784,0-72.035,32.251-72.035,72.035s32.251,72.035,72.035,72.035c5.643,0,11.127-0.67,16.398-1.897
	C416.72,134.746,392.962,106.174,392.962,72.035z"/>
<path style="fill:#778082;" d="M504.235,72.035c-79.95,8.194-122.666-51.225-122.666-51.225
	c13.013-12.863,30.896-20.806,50.635-20.806C471.984,0.004,504.235,32.255,504.235,72.035z"/>
<polyline style="fill:#D57CD4;" points="398.717,288.139 397.883,391.983 363.22,391.983 373.033,288.139 "/>
<g>
	<path style="fill:#778082;" d="M392.691,82.699c-3.768,0-6.903-3.132-6.902-6.902c0.001-3.761,3.138-6.886,6.896-6.896
		c3.751-0.01,6.906,3.147,6.908,6.896C399.596,79.558,396.448,82.699,392.691,82.699z"/>
	<path style="fill:#778082;" d="M447.218,82.699c-3.903,0-7.115-3.374-6.891-7.281c0.2-3.484,3.059-6.313,6.538-6.503
		c3.738-0.203,7.032,2.777,7.243,6.505C454.328,79.321,451.109,82.699,447.218,82.699z"/>
</g>
<path style="fill:#666666;" d="M294.054,259.337c-3.987,0-7.218-3.231-7.218-7.218v-21.383c0-13.947,11.347-25.292,25.294-25.292
	h15.331c3.987,0,7.218,3.231,7.218,7.218s-3.231,7.218-7.218,7.218h-15.331c-5.987,0-10.857,4.87-10.857,10.857v21.383
	C301.272,256.105,298.04,259.337,294.054,259.337z"/>
<path style="fill:#F9DCA4;" d="M385.37,264.617c-18.649,0-36.544-7.413-49.781-20.786l-23.864-24.108
	c-3.657-3.694-3.627-9.654,0.068-13.311c3.692-3.654,9.651-3.627,13.309,0.068l23.864,24.109
	c10.626,10.736,25.372,16.22,40.415,15.047c15.058-1.172,28.764-8.868,37.601-21.117l23.237-32.204
	c3.042-4.215,8.925-5.166,13.14-2.126c4.214,3.042,5.166,8.924,2.125,13.139l-23.237,32.204
	c-12.082,16.745-30.819,27.269-51.406,28.87C389.014,264.547,387.188,264.617,385.37,264.617z"/>
<g>
	<rect x="97.13" y="452.88" style="fill:#666666;" width="116.153" height="14.436"/>
	
		<rect x="57.682" y="364.112" transform="matrix(-0.8872 -0.4614 0.4614 -0.8872 -61.3059 781.6521)" style="fill:#666666;" width="14.435" height="68.418"/>
	
		<rect x="211.235" y="391.888" transform="matrix(-0.4893 -0.8721 0.8721 -0.4893 16.7998 808.0499)" style="fill:#666666;" width="67.51" height="14.436"/>
</g>
<path style="fill:#74C194;" d="M173.967,396.32c0.01,0.001,0.019,0.003,0.029,0.004c-0.742,0.097-1.482,0.183-2.224,0.26
	l-1.645,0.173c-0.385,0.039-0.77,0.077-1.154,0.105c-1.222,0.105-2.455,0.202-3.686,0.279c-0.626,0.039-1.241,0.077-1.857,0.105
	c-0.548,0.029-1.088,0.058-1.636,0.077c-0.154,0.01-0.317,0.01-0.481,0.019c-0.462,0.019-0.924,0.029-1.385,0.039
	c-0.558,0.019-1.126,0.029-1.684,0.039c-0.76,0.01-1.53,0.019-2.29,0.019c-80.263,0-145.321-65.058-145.321-145.321
	c0-80.253,65.058-145.321,145.321-145.321v145.321h145.321C301.272,326.276,245.721,387.448,173.967,396.32z"/>
<g>
	<circle style="fill:#778082;" cx="52.443" cy="460.096" r="51.903"/>
	<circle style="fill:#778082;" cx="257.97" cy="460.096" r="51.903"/>
</g>
<g>
	<circle style="fill:#E6E6E6;" cx="52.443" cy="460.096" r="28.082"/>
	<circle style="fill:#E6E6E6;" cx="257.97" cy="460.096" r="28.082"/>
</g>
<g>
	<path style="fill:#666666;" d="M257.966,495.4c-19.465,0-35.302-15.836-35.302-35.3c0-19.465,15.836-35.3,35.302-35.3
		s35.3,15.836,35.3,35.3C293.267,479.565,277.431,495.4,257.966,495.4z M257.966,439.235c-11.505,0-20.865,9.36-20.865,20.865
		s9.36,20.865,20.865,20.865s20.864-9.36,20.864-20.865S269.471,439.235,257.966,439.235z"/>
	<path style="fill:#666666;" d="M52.442,495.4c-19.465,0-35.3-15.836-35.3-35.3c0-19.465,15.836-35.3,35.3-35.3
		s35.302,15.836,35.302,35.3C87.743,479.565,71.906,495.4,52.442,495.4z M52.442,439.235c-11.505,0-20.864,9.36-20.864,20.865
		s9.36,20.865,20.864,20.865c11.505,0,20.865-9.36,20.865-20.865S63.948,439.235,52.442,439.235z"/>
</g>
<path style="fill:#43AC75;" d="M46.808,256.931h87.37c3.208,6.165,9.643,10.382,17.073,10.382c10.63,0,19.248-8.617,19.248-19.248
	c0-7.167-3.925-13.406-9.736-16.719V106.798c0-2.658-2.155-4.811-4.811-4.811s-4.811,2.155-4.811,4.811v0.088
	c-22.887,0.745-44.433,6.78-63.459,16.926l-0.041-0.072c-1.325-2.303-4.267-3.097-6.571-1.772s-3.097,4.267-1.772,6.571l0.046,0.08
	c-19.031,11.83-35.123,27.933-46.941,46.971l-2.232-1.283c-2.307-1.324-5.245-0.528-6.569,1.776
	c-1.324,2.304-0.53,5.245,1.774,6.569l2.225,1.277c-10.118,19.007-16.138,40.523-16.881,63.375h-0.088
	c-2.658,0-4.811,2.155-4.811,4.813c0,2.658,2.155,4.813,4.811,4.813h0.088c2.54,78.035,66.581,140.509,145.233,140.509
	c0.76,0,1.53-0.01,2.29-0.019c0.558-0.01,1.126-0.019,1.684-0.039c0.462-0.01,0.924-0.019,1.385-0.039
	c0.163-0.01,0.326-0.01,0.481-0.019c0.548-0.019,1.088-0.048,1.636-0.077c0.616-0.029,1.231-0.068,1.857-0.105
	c1.232-0.077,2.463-0.173,3.686-0.279c0.385-0.029,0.771-0.068,1.154-0.105l1.646-0.173c0.742-0.078,1.482-0.164,2.222-0.26
	C103.808,387.633,49.15,328.901,46.808,256.931z M151.139,112.65v116.172c-0.986,0.006-1.949,0.103-2.895,0.252L97.84,141.47
	C113.182,128.396,131.281,118.466,151.139,112.65z M90.565,148.125l48.802,84.82c-0.974,0.767-1.87,1.623-2.679,2.56l-76.707-44.07
	C67.478,175.149,77.893,160.492,90.565,148.125z M56.231,200.381l76.174,43.763c-0.212,1.025-0.321,2.086-0.364,3.164H46.823
	C47.361,230.821,50.646,215.036,56.231,200.381z"/>
<path style="fill:#FFFFFF;" d="M394.939,103.978c5.186,1.075,9.215,1.924,13.104,2.367c3.845,0.469,7.385,0.694,10.943,0.693
	c3.558-0.014,7.094-0.238,10.935-0.71c3.885-0.444,7.912-1.285,13.111-2.348c-1.109,5.222-4.613,9.436-8.956,12.391
	c-4.382,2.939-9.743,4.479-15.09,4.47c-5.346-0.008-10.704-1.546-15.083-4.489C399.563,113.394,396.061,109.188,394.939,103.978z"/>
<g>
</g>
<g>
</g>
<g>
</g>
<g>
</g>
<g>
</g>
<g>
</g>
<g>
</g>
<g>
</g>
<g>
</g>
<g>
</g>
<g>
</g>
<g>
</g>
<g>
</g>
<g>
</g>
<g>
</g>
</svg>
