<?xml version="1.0" encoding="iso-8859-1"?>
<!-- Generator: Adobe Illustrator 18.0.0, SVG Export Plug-In . SVG Version: 6.00 Build 0)  -->
<!DOCTYPE svg PUBLIC "-//W3C//DTD SVG 1.1//EN" "http://www.w3.org/Graphics/SVG/1.1/DTD/svg11.dtd">
<svg version="1.1" id="Capa_1" xmlns="http://www.w3.org/2000/svg" xmlns:xlink="http://www.w3.org/1999/xlink" x="0px" y="0px"
	 viewBox="0 0 385.998 385.998" style="enable-background:new 0 0 385.998 385.998;" xml:space="preserve">
<g>
	<path style="fill:#F2E5AD;" d="M272.846,117.876c-3.986-32.884-10.254-70.313-32.332-98c-21-26.333-77-26.333-99.714-1
		c-23.641,26.367-24.612,62.049-28,95.002c-1.953,19,13.467,30.912,21.118,24.109c-15.631,12.434-2.368,37.225,10.501,37.861
		c0.466-0.092,9.576-0.338,10.541,0.129c5.878,2.852,13.564,2.508,19.782,4.635c5.604,1.916,10.943,4.229,16.771,5.195v0.111
		c0.105-0.016,0.206-0.039,0.31-0.055c0.104,0.016,0.205,0.039,0.31,0.055v-0.111c5.828-0.967,11.168-3.279,16.771-5.195
		c6.218-2.127,13.904-1.783,19.781-4.635c0.965-0.467,10.076-0.221,10.541-0.129c12.869-0.637,26.133-25.428,10.502-37.861
		C257.379,144.791,275.514,139.878,272.846,117.876z"/>
	<g>
		
			<ellipse transform="matrix(0.9926 -0.1218 0.1218 0.9926 -10.012 30.6763)" style="fill:#FFB37F;" cx="245.846" cy="97.21" rx="13.666" ry="17.002"/>
		
			<ellipse transform="matrix(0.9987 -0.0509 0.0509 0.9987 -4.7788 7.0303)" style="fill:#F29555;" cx="135.514" cy="97.253" rx="13.667" ry="17.001"/>
	</g>
	<g>
		<path style="fill:#FFB37F;" d="M179.959,152.041c-2.245-4.258-7.516-5.889-11.771-3.646c-0.546,0.287-13.522,7.217-26.307,21.541
			c-11.458,12.842-19.977,29.074-23.842,45.859c-2.611,11.332-7.73,37.912,4.175,46.301c12.182,8.584,14.336-7.02,12.996-15.32
			c7.411,7.637,10.389,2.771,7.135-4.918c-4.723-11.154-9.169-14.949-5.646-27.725c3.284-11.914,9.632-22.879,17.771-32.127
			c10.665-12.117,21.663-18.098,21.863-18.205C180.575,161.55,182.198,156.291,179.959,152.041z"/>
		<path style="fill:#FFC695;" d="M272.535,235.125c-0.807-5.311-2.023-10.338-2.826-14.146
			c-4.082-19.385-12.652-37.314-26.264-51.814c-13.143-14-26.29-20.594-26.843-20.869c-4.313-2.135-9.54-0.371-11.676,3.941
			c-2.131,4.307-0.376,9.523,3.923,11.666c0.203,0.1,11.349,5.803,22.316,17.645c7.996,8.635,14.195,18.721,17.928,29.893
			c3.291,9.852,2.689,17.387-1.209,26.865c-2.576,6.262-4.484,19.742,5.293,9.145c-1.129,8.334,1.418,23.873,13.379,14.988
			C274.123,256.812,274.102,245.433,272.535,235.125z"/>
	</g>
	<path style="fill:#F29555;" d="M223.328,153.3c-4.938-5.387-21.75-13.518-30.573-11.148c-8.824-2.369-25.637,5.762-30.574,11.148
		c-7.289,7.953-12.305,21.699-10.25,86.697h40.703h0.242h44.7C239.633,175,230.617,161.253,223.328,153.3z"/>
	<path style="fill:#FFD4DD;" d="M223.328,153.3c-1.055-1.15-2.655-2.426-4.6-3.699c-5.466,7.777-14.492,12.943-24.549,12.943
		c-10.585,0-20.029-5.721-25.38-14.189c-2.859,1.668-5.218,3.418-6.619,4.945c-7.289,7.953-12.305,21.699-10.25,86.697h85.645
		C239.633,175,230.617,161.253,223.328,153.3z"/>
	<g>
		<g>
			<path style="fill:#FFC695;" d="M193.763,26.463c-15.094,0.7-30.754,4.86-42,12.536c-16.568,11.31-22.661,34.931-20.242,52.997
				c6.365,47.543,51.946,58.033,62.242,58.861V26.463z"/>
			<path style="fill:#FFC695;" d="M192.747,26.463c15.092,0.7,29.754,4.86,40.999,12.536c16.568,11.31,19.357,34.804,18.242,52.997
				c-1.512,24.633-28.178,57.965-59.241,58.861V26.463z"/>
		</g>
		<g>
			<path style="fill:#FFB37F;" d="M152.05,238.998c1.124,11.6,4.47,74.742,19.758,126h12v-88h18.045l3.01,87h11
				c11.888-49.918,20.296-111.268,21.659-125H152.05z"/>
			<path style="fill:#FF789F;" d="M183.808,363.998h-12c0,0-15.996,5.631-29,22h42L183.808,363.998z"/>
			<path style="fill:#FF789F;" d="M203.702,363.998h13c0,0,18.774,9.297,24.999,22h-37.999V363.998z"/>
			<path style="fill:#FFABBF;" d="M148.263,379.878c-1.842,1.85-3.677,3.881-5.455,6.119h42l-0.278-6.119H148.263z"/>
			<path style="fill:#FFABBF;" d="M203.702,379.878v6.119h37.999c-1.053-2.146-2.469-4.195-4.088-6.119H203.702z"/>
		</g>
	</g>
	<g>
		<circle style="fill:#333331;" cx="162.629" cy="93.153" r="6.487"/>
		<circle style="fill:#333331;" cx="222.879" cy="93.153" r="6.487"/>
	</g>
	<path style="fill:#F29555;" d="M202.087,108.665c0,2.762-2.335,5.001-5.215,5.001h-8.236c-2.881,0-5.215-2.239-5.215-5.001l0,0
		c0-2.761,2.334-5,5.215-5h8.236C199.752,103.665,202.087,105.904,202.087,108.665L202.087,108.665z"/>
	<path style="fill:#F29555;" d="M206.292,120.021c-1.639-0.203-3.127,0.949-3.346,2.578c-0.115,0.779-1.331,6.977-10.192,7.398
		c-8.861-0.422-10.077-6.619-10.192-7.398c-0.219-1.629-1.707-2.781-3.346-2.578c-1.645,0.205-2.811,1.705-2.605,3.35
		c0.543,4.338,4.627,12.107,15.977,12.602v0.023c0.059-0.002,0.109-0.01,0.167-0.012c0.058,0.002,0.108,0.01,0.167,0.012v-0.023
		c11.35-0.494,15.434-8.264,15.977-12.602C209.103,121.726,207.937,120.226,206.292,120.021z"/>
	<path style="fill:#FCF2C8;" d="M192.18,10.21c-21.987-0.7-41.374,7.238-52.401,26.95c-7.09,12.671-12.019,30.115-11.192,44.655
		c0.607,10.656,10.806,17.959,17.994,6.861c3.883-5.994,2.908-13.638,3.399-20.397c5.25,8.889,20.907-2.069,19.835-11.169
		c11.781,9.795,32.651,6.253,45.526,0.433c0.598-0.271,1.189-0.559,1.771-0.863c33.378,8.799,34.876,35.315,34.876,35.315
		S265.514,12.543,192.18,10.21z"/>
	<path style="fill:#FFABBF;" d="M152.05,238.998h85.472c0,0,11.324,12.213,13.992,78.213H140.18
		C140.18,317.21,135.253,264.119,152.05,238.998z"/>
	<path style="fill:#FFD4DD;" d="M139.573,305.21c0.17,7.285,0.607,12,0.607,12h111.334c-0.172-4.217-0.377-8.211-0.613-12H139.573z"
		/>
	<rect x="151.514" y="226.878" style="fill:#FF789F;" width="87.332" height="12.666"/>
	<g>
		<polygon style="fill:#FF789F;" points="213.287,193.013 214.439,162.449 195.25,172.796 195.16,172.101 176.308,160.783 
			176.05,191.369 195.273,180.707 		"/>
		<rect x="190.577" y="169.21" style="fill:#FFABBF;" width="9.333" height="14.668"/>
	</g>
</g>
<g>
</g>
<g>
</g>
<g>
</g>
<g>
</g>
<g>
</g>
<g>
</g>
<g>
</g>
<g>
</g>
<g>
</g>
<g>
</g>
<g>
</g>
<g>
</g>
<g>
</g>
<g>
</g>
<g>
</g>
</svg>
