<?xml version="1.0" encoding="iso-8859-1"?>
<!-- Generator: Adobe Illustrator 19.0.0, SVG Export Plug-In . SVG Version: 6.00 Build 0)  -->
<svg version="1.1" id="Layer_1" xmlns="http://www.w3.org/2000/svg" xmlns:xlink="http://www.w3.org/1999/xlink" x="0px" y="0px"
	 viewBox="0 0 512 512" style="enable-background:new 0 0 512 512;" xml:space="preserve">
<path style="fill:#F9DCA4;" d="M220.625,361.034c-0.703,0-1.416-0.034-2.137-0.102c-22.093-2.086-48.501-39.382-53.571-46.838
	c-2.893-4.255-1.789-10.05,2.466-12.943c4.255-2.893,10.049-1.789,12.943,2.466c15.734,23.104,32.97,38.111,39.915,38.764
	c0.865,0.079,1.068-0.082,1.445-0.457c10.585-10.585,38.372-97.949,54.722-156.603c1.381-4.955,6.518-7.853,11.476-6.473
	c4.956,1.381,7.854,6.519,6.473,11.476c-0.1,0.36-10.195,36.507-22.25,74.273c-24.974,78.23-33.889,87.146-37.245,90.502
	C230.956,359.005,226.068,361.034,220.625,361.034z"/>
<path style="fill:#778082;" d="M401.926,55.503c0,0,25.688,75.264-10.181,146.072c-16.72,3.31-31.72,7.77-42.391-2.902
	c-10.671-10.671-0.291-56.067-16.576-56.067c14.118-0.076-23.454-61.827-12.409-68.982
	C339.985,60.921,369.129,43.746,401.926,55.503z"/>
<path style="fill:#F9DCA4;" d="M365.678,386.774c0,0-1.18,12.832-3.976,30.297c-2.36,14.72-5.876,32.72-10.795,49.092
	c-4.969,16.497-11.366,31.316-19.465,39.416c-8.099-8.099-14.497-22.919-19.454-39.416c-4.919-16.372-8.434-34.371-10.795-49.092
	c-2.795-17.466-3.975-30.297-3.975-30.297H365.678z"/>
<path style="fill:#E7C080;" d="M365.672,386.778c0,0-1.18,12.832-3.975,30.297h-60.508c-2.795-17.466-3.975-30.297-3.975-30.297
	H365.672z"/>
<g>
	<path style="fill:#F7C957;" d="M350.908,466.163c-4.969,16.497-11.366,31.316-19.465,39.416
		c-8.099-8.099-14.497-22.919-19.454-39.416H350.908z"/>
	<path style="fill:#F7C957;" d="M391.74,201.573v83.65H273.804v-83.65c0-19.664,9.628-37.08,24.434-47.787
		c9.701-7.044,21.626-11.18,34.533-11.18c12.745,0,24.558,4.037,34.198,10.932c2.683,1.9,5.192,4.025,7.503,6.347
		C385.143,170.556,391.74,185.301,391.74,201.573z"/>
</g>
<path style="fill:#D5A03C;" d="M345.486,144.001c-4.096-0.901-8.345-1.39-12.712-1.39l0,0c-32.566,0-58.965,26.399-58.965,58.964
	v83.648h25.424v-83.648C299.234,173.378,319.034,149.816,345.486,144.001z"/>
<polygon style="fill:#53C489;" points="401.453,388.018 264.096,388.018 273.81,285.224 391.739,285.224 "/>
<circle style="fill:#F9DCA4;" cx="332.382" cy="71.306" r="71.306"/>
<g>
	<path style="fill:#E7C080;" d="M366.969,153.537c-10.248,5.701-22.049,8.944-34.595,8.944c-12.372,0-24-3.156-34.136-8.695
		c9.701-7.044,21.626-11.18,34.533-11.18C345.516,142.606,357.33,146.643,366.969,153.537z"/>
	<path style="fill:#E7C080;" d="M293.536,71.306c0-33.795,23.517-62.077,55.074-69.428C343.393,0.663,337.965,0,332.379,0
		c-39.381,0-71.306,31.925-71.306,71.306s31.925,71.306,71.306,71.306c5.587,0,11.015-0.663,16.232-1.878
		C317.053,133.384,293.536,105.101,293.536,71.306z"/>
</g>
<path style="fill:#778082;" d="M403.684,71.306c-79.141,8.112-121.425-50.706-121.425-50.706
	C295.14,7.866,312.842,0.003,332.382,0.003C371.76,0.003,403.684,31.928,403.684,71.306z"/>
<polyline style="fill:#41AF73;" points="299.234,285.223 298.407,388.018 264.096,388.018 273.81,285.224 "/>
<g>
	<path style="fill:#778082;" d="M293.269,81.862c-3.73,0-6.835-3.101-6.832-6.832c0.002-3.723,3.107-6.816,6.826-6.826
		c3.712-0.009,6.837,3.116,6.838,6.826C300.103,78.754,296.989,81.862,293.269,81.862z"/>
	<path style="fill:#778082;" d="M347.243,81.862c-3.864,0-7.042-3.339-6.821-7.208c0.198-3.448,3.029-6.25,6.472-6.437
		c3.701-0.201,6.962,2.749,7.171,6.439C354.282,78.518,351.096,81.862,347.243,81.862z"/>
</g>
<path style="fill:#FFFFFF;" d="M295.494,102.927c5.133,1.065,9.12,1.905,12.97,2.342c3.806,0.464,7.31,0.687,10.832,0.686
	c3.521-0.014,7.022-0.236,10.824-0.703c3.846-0.44,7.833-1.272,12.978-2.325c-1.098,5.169-4.566,9.34-8.865,12.266
	c-4.337,2.908-9.645,4.433-14.937,4.425c-5.293-0.007-10.597-1.53-14.93-4.442C300.07,112.247,296.604,108.083,295.494,102.927z"/>
<path style="fill:#F7C957;" d="M338.048,492.579H324.85c-6.676,0-12.089,5.413-12.089,12.089v0.913h37.375v-0.913
	C350.137,497.99,344.724,492.579,338.048,492.579z"/>
<path style="fill:#EAA0E3;" d="M433.263,170.424L433.263,170.424c-18.269-18.269-47.888-18.269-66.158,0l-49.823,49.823
	c-18.269,18.269-18.269,47.888,0,66.158l0,0c18.269,18.269,47.888,18.269,66.158,0l49.823-49.823
	C451.532,218.312,451.532,188.693,433.263,170.424z"/>
<path style="fill:#D57CD4;" d="M338.653,289.291L338.653,289.291c-18.269-18.269-18.269-47.888,0-66.158l49.823-49.823
	c7.965-7.965,18.09-12.455,28.489-13.475c-16.72-6.414-36.378-2.893-49.857,10.587l-49.823,49.823
	c-18.269,18.269-18.269,47.888,0,66.158l0,0c10.303,10.303,24.217,14.793,37.668,13.475
	C349.013,297.6,343.441,294.079,338.653,289.291z"/>
<path style="fill:#EAD5AC;" d="M400.876,207.144c-4.713,4.713-10.915,7.069-17.107,7.069c-4.967,0-9.922-1.513-14.126-4.551
	c-1.04-0.739-2.033-1.582-2.969-2.518c-9.437-9.425-9.437-24.776,0-34.202c4.713-4.713,10.904-7.081,17.095-7.081
	c6.191,0,12.394,2.368,17.107,7.081c0.936,0.936,1.779,1.941,2.53,2.98C410.209,185.371,409.366,198.654,400.876,207.144z"/>
<path style="fill:#FCE8BB;" d="M400.876,207.144c-4.713,4.713-10.915,7.069-17.107,7.069c-4.967,0-9.922-1.513-14.126-4.551
	c-6.826-9.448-5.983-22.743,2.518-31.233c4.713-4.724,10.904-7.081,17.095-7.081c4.967,0,9.934,1.513,14.15,4.574
	C410.209,185.371,409.366,198.654,400.876,207.144z"/>
<path style="fill:#F9DCA4;" d="M440.888,287.964c-3.627,3.615-8.374,5.429-14.323,5.429c-8.744,0.012-20.064-3.916-34.144-11.793
	c-0.889-0.497-1.779-1.005-2.657-1.513c-13.953-8.074-25.596-16.968-26.116-17.361c-3.8-2.911-4.516-8.351-1.606-12.151
	c2.911-3.789,8.351-4.516,12.151-1.606c0.116,0.104,12.787,9.76,26.809,17.58c0.497,0.277,0.993,0.554,1.478,0.82
	c18.319,9.968,25.377,9.113,26.151,8.34c4.02-4.02,3.13-15.593,0.219-27.491c-0.462-1.894-0.97-3.812-1.525-5.694l5.937-5.937
	c2.865-2.865,5.279-6.006,7.254-9.344c2.507,6.63,6.076,17.476,7.496,28.588C449.551,267.901,448.546,280.295,440.888,287.964z"/>
<g>
	<path style="fill:#778082;" d="M396.633,199.486c-2.039,0-3.716-1.763-3.599-3.804c0.104-1.819,1.599-3.298,3.416-3.397
		c1.953-0.106,3.673,1.451,3.784,3.398C400.347,197.721,398.666,199.486,396.633,199.486z"/>
	<path style="fill:#778082;" d="M376.315,180.187c-2.039,0-3.716-1.763-3.599-3.804c0.104-1.819,1.599-3.298,3.416-3.397
		c1.953-0.106,3.673,1.451,3.784,3.398C380.029,178.423,378.348,180.187,376.315,180.187z"/>
</g>
<path style="fill:#D57CD4;" d="M383.77,216.523c-5.609,0-10.962-1.725-15.479-4.989c-1.124-0.798-2.221-1.729-3.249-2.757
	c-5-4.995-7.755-11.648-7.755-18.735c0.001-7.086,2.755-13.74,7.756-18.734c5-5.001,11.652-7.756,18.728-7.756
	c7.083,0,13.738,2.755,18.74,7.757c0.989,0.989,1.92,2.086,2.769,3.261c7.628,10.593,6.461,24.978-2.769,34.208l0,0
	C397.514,213.772,390.86,216.523,383.77,216.523z M383.77,168.172c-5.842,0-11.334,2.274-15.463,6.404
	c-4.127,4.122-6.4,9.616-6.401,15.468c0,5.852,2.273,11.344,6.4,15.466c0.847,0.847,1.748,1.61,2.675,2.27
	c3.739,2.701,8.157,4.124,12.788,4.124c5.855,0,11.35-2.27,15.473-6.392l0,0c7.621-7.62,8.583-19.495,2.288-28.238
	c-0.702-0.973-1.474-1.88-2.289-2.697C395.113,170.446,389.617,168.172,383.77,168.172z"/>
<path style="fill:#EAD5AC;" d="M448.014,255.83c-6.307-5.44-13.768-7.161-19.163-7.612c-0.462-1.894-0.97-3.812-1.525-5.694
	l5.937-5.937c2.865-2.865,5.279-6.006,7.254-9.344C443.025,233.872,446.594,244.718,448.014,255.83z"/>
<g>
	<path style="fill:#F9DCA4;" d="M72.274,428.576c-4.915,0-8.9-3.984-8.9-8.899c0-69.656,34.363-107.66,35.826-109.244
		c3.334-3.61,8.966-3.835,12.575-0.499c3.605,3.33,3.834,8.947,0.514,12.559c-0.502,0.557-31.118,35.055-31.118,97.184
		C81.172,424.593,77.188,428.576,72.274,428.576z"/>
	<path style="fill:#F9DCA4;" d="M142.166,435.23V512c-5.043-5.043-9.398-12.708-13.159-21.761
		c-4.936-11.889-8.828-26.163-11.842-39.987c-1.116-5.126-2.113-10.169-2.99-15.022H142.166z"/>
	<path style="fill:#F9DCA4;" d="M170.156,435.23c-0.878,4.854-1.875,9.897-2.99,15.022c-3.014,13.824-6.906,28.098-11.842,39.987
		c-3.761,9.053-8.116,16.718-13.159,21.761v-92.647L170.156,435.23z"/>
</g>
<path style="fill:#E7C080;" d="M170.156,435.23c-0.878,4.854-1.875,9.897-2.99,15.022h-50.002
	c-1.116-5.126-2.113-10.169-2.99-15.022l27.991-15.876L170.156,435.23z"/>
<path style="fill:#53C489;" d="M89.024,427.211l-1.2,8.014h108.677l-1.2-8.014c-4.412-29.455-6.627-59.198-6.627-88.983v-9.891
	c0-25.688-20.824-46.511-46.511-46.511l0,0c-25.688,0-46.511,20.824-46.511,46.511v9.891
	C95.651,368.013,93.436,397.756,89.024,427.211z"/>
<path style="fill:#41AF73;" d="M96.851,328.337v9.891c0,29.785-2.215,59.528-6.627,88.983l-1.2,8.014h28.588l0.568-8.014
	c2.091-29.455,3.141-59.198,3.141-88.983v-9.891c0-25.688,9.868-46.511,22.041-46.511l0,0
	C117.675,281.826,96.851,302.65,96.851,328.337z"/>
<path style="fill:#E7C080;" d="M175.054,295.456c-7.618,9.797-19.514,16.109-32.887,16.109c-13.384,0-25.293-6.311-32.897-16.12
	c8.411-8.412,20.036-13.623,32.887-13.623S166.643,287.033,175.054,295.456z"/>
<g>
	<path style="fill:#53C489;" d="M155.325,490.238c-3.761,9.053-8.116,16.718-13.159,21.761c-5.043-5.043-9.398-12.708-13.159-21.761
		H155.325z"/>
	<path style="fill:#53C489;" d="M147.928,499.582h-11.524c-6.676,0-12.089,5.413-12.089,12.089V512h35.701v-0.329
		C160.016,504.995,154.604,499.582,147.928,499.582z"/>
</g>
<circle style="fill:#F9DCA4;" cx="142.166" cy="231.476" r="56.282"/>
<path style="fill:#E7C080;" d="M115.396,231.477c0-25.975,17.602-47.829,41.525-54.314c-4.705-1.275-9.649-1.968-14.757-1.968
	c-31.084,0-56.282,25.199-56.282,56.282s25.199,56.282,56.282,56.282c5.109,0,10.053-0.693,14.757-1.968
	C132.997,279.306,115.396,257.452,115.396,231.477z"/>
<g>
	<path style="fill:#F7C957;" d="M142.162,175.189c0,44.228-54.649,42.786-54.649,42.786
		C93.553,193.409,115.735,175.189,142.162,175.189z"/>
	<path style="fill:#F7C957;" d="M196.811,217.975c0,0-54.649,1.442-54.649-42.786C168.59,175.189,190.772,193.409,196.811,217.975z"
		/>
</g>
<g>
	<path style="fill:#778082;" d="M120.024,240.799c-3.552,0-6.527-2.973-6.526-6.526c0.001-3.642,3.118-6.63,6.746-6.513
		c3.544,0.114,6.421,3.178,6.299,6.727C126.423,237.964,123.51,240.799,120.024,240.799z"/>
	<path style="fill:#778082;" d="M164.294,240.799c-3.709,0-6.763-3.242-6.511-6.952c0.247-3.64,3.567-6.448,7.197-6.051
		c3.082,0.336,5.547,2.838,5.813,5.931C171.12,237.484,168.064,240.799,164.294,240.799z"/>
</g>
<g>
</g>
<g>
</g>
<g>
</g>
<g>
</g>
<g>
</g>
<g>
</g>
<g>
</g>
<g>
</g>
<g>
</g>
<g>
</g>
<g>
</g>
<g>
</g>
<g>
</g>
<g>
</g>
<g>
</g>
</svg>
