<?xml version="1.0" encoding="iso-8859-1"?>
<!-- Generator: Adobe Illustrator 18.0.0, SVG Export Plug-In . SVG Version: 6.00 Build 0)  -->
<!DOCTYPE svg PUBLIC "-//W3C//DTD SVG 1.1//EN" "http://www.w3.org/Graphics/SVG/1.1/DTD/svg11.dtd">
<svg version="1.1" id="Capa_1" xmlns="http://www.w3.org/2000/svg" xmlns:xlink="http://www.w3.org/1999/xlink" x="0px" y="0px"
	 viewBox="0 0 211.342 211.342" style="enable-background:new 0 0 211.342 211.342;" xml:space="preserve">
<g>
	<g>
		<path style="fill-rule:evenodd;clip-rule:evenodd;fill:#D56C2B;" d="M76.72,56.526c1.892,4.728,17.959,6.547,7.621-19.486
			C72.274,6.651,95-3.66,105.886,1.114c13.037-4.33,29.021,9.269,21.782,35.926c-7.339,27.032,6.922,23.81,8.813,19.08
			C123.026,90.717,90.451,91.124,76.72,56.526z"/>
		<path style="fill-rule:evenodd;clip-rule:evenodd;fill:#FBD9BD;" d="M92.803,197.264c-2.93,4.24-6.83,6.68-7.805,9.738
			c-0.551,1.729-0.142,3.916,1.615,4.134c7.563,0.935,9.76-2.78,12.452-3.534c4.654-1.307,4.773-3.982,2.891-10.338
			C100.073,190.909,95.159,193.297,92.803,197.264z"/>
		<path style="fill-rule:evenodd;clip-rule:evenodd;fill:#FBD9BD;" d="M88.388,116.684h34.599l-4.415,80.58h-9.154l-1.862-61.287
			c-0.146-4.859-3.588-4.889-3.736,0l-1.862,61.287h-9.153L88.388,116.684z"/>
		<path style="fill-rule:evenodd;clip-rule:evenodd;fill:#8599B4;" d="M117.553,66.501l9.278,34.159
			c1.109,4.083,9.72,0.062,9.08-3.749l-5.612-33.42C128.254,54.074,115.108,57.555,117.553,66.501z"/>
		<path style="fill-rule:evenodd;clip-rule:evenodd;fill:#8599B4;" d="M93.253,66.501l-9.279,34.159
			c-1.108,4.083-9.719,0.062-9.079-3.749l5.612-33.42C82.566,53.768,95.704,57.356,93.253,66.501z"/>
		<path style="fill-rule:evenodd;clip-rule:evenodd;fill:#FBD9BD;" d="M85.107,121.434L85.107,121.434
			c0.335-0.227,0.752,0.227,0.782,0.621l0.436,5.84c0.029,0.394-0.35,0.592-0.684,0.816l0,0c-0.334,0.225-0.751-0.227-0.781-0.622
			l-0.437-5.839C84.393,121.854,84.704,121.487,85.107,121.434z"/>
		<path style="fill-rule:evenodd;clip-rule:evenodd;fill:#FBD9BD;" d="M85.903,123.93l-0.19-2.512l-8.297,1.195l0.19,2.51
			C78.41,132.686,86.845,133.112,85.903,123.93z"/>
		<path style="fill-rule:evenodd;clip-rule:evenodd;fill:#8599B4;" d="M85.804,122.159l-1.793-24.123
			c-1.549-6.391-8.629-5.413-8.965,0.271l2.535,25.01L85.804,122.159z"/>
		<polygon style="fill-rule:evenodd;clip-rule:evenodd;fill:#8599B4;" points="126.282,57.684 122.986,116.684 105.404,116.684 
			88.388,116.684 85.092,57.684 		"/>
		<path style="fill-rule:evenodd;clip-rule:evenodd;fill:#FFDDCB;" d="M113.676,37.518v20.166c0,10.544-15.978,10.103-15.978,0
			V37.518C97.698,26.95,113.676,26.95,113.676,37.518z"/>
		<polygon style="fill-rule:evenodd;clip-rule:evenodd;fill:#425156;" points="87.654,103.559 89.668,140.063 121.615,140.063 
			123.715,103.633 		"/>
		<path style="fill-rule:evenodd;clip-rule:evenodd;fill:#FBD9BD;" d="M118.591,197.264c2.93,4.24,6.83,6.68,7.805,9.738
			c0.552,1.729,0.143,3.916-1.615,4.134c-7.563,0.935-9.759-2.78-12.451-3.534c-4.655-1.307-4.774-3.982-2.892-10.338
			C111.32,190.909,116.235,193.297,118.591,197.264z"/>
		<path style="fill-rule:evenodd;clip-rule:evenodd;fill:#8599B4;" d="M87.453,203.332c-1.138,1.232-2.049,2.398-2.455,3.671
			c-1.381,4.332,2.254,4.538,5.467,4.207c4.586-0.473,6.433-3,8.601-3.607c4.181-1.174,4.702-3.453,3.399-8.512
			c-0.178,4.412-7.146,7.26-8.891,7.787C91.83,207.404,87.782,205.05,87.453,203.332z"/>
		<path style="fill-rule:evenodd;clip-rule:evenodd;fill:#8599B4;" d="M123.943,203.332c1.138,1.232,2.05,2.398,2.456,3.671
			c1.473,4.623-2.919,4.637-6.205,4.109c-4.053-0.649-5.814-2.936-7.862-3.51c-4.182-1.174-4.703-3.453-3.4-8.512
			c0.179,4.412,7.175,7.658,8.994,7.787C119.745,207.006,124.54,203.868,123.943,203.332z"/>
		<path style="fill:#8599B4;" d="M95.685,206.212c-0.022-0.138-0.072-0.291-0.146-0.457c-0.425-0.965-1.521-2.043-2.827-2.852
			c-1.256-0.775-2.92-1.27-4.035-1.122c0.577-0.595,1.177-1.22,1.775-1.888c1.061,0.229,2.398,0.697,3.376,1.301
			c1.634,1.01,3.036,2.434,3.625,3.77c0.135,0.307,0.231,0.619,0.284,0.931L95.685,206.212z"/>
		<path style="fill:#8599B4;" d="M115.806,206.212c0.022-0.138,0.072-0.291,0.145-0.457c0.426-0.965,1.521-2.043,2.828-2.852
			c1.256-0.775,2.92-1.27,4.035-1.122c-0.577-0.595-1.177-1.22-1.773-1.888c-1.062,0.229-2.4,0.697-3.377,1.301
			c-1.634,1.01-3.036,2.434-3.625,3.77c-0.135,0.307-0.232,0.619-0.284,0.931L115.806,206.212z"/>
		<path style="fill-rule:evenodd;clip-rule:evenodd;fill:#FBD9BD;" d="M125.698,121.434L125.698,121.434
			c-0.333-0.227-0.751,0.227-0.78,0.621l-0.437,5.84c-0.03,0.394,0.35,0.592,0.684,0.816l0,0c0.334,0.225,0.751-0.227,0.781-0.622
			l0.437-5.839C126.412,121.854,126.102,121.487,125.698,121.434z"/>
		<path style="fill-rule:evenodd;clip-rule:evenodd;fill:#FBD9BD;" d="M124.902,123.93l0.19-2.512l8.297,1.195l-0.19,2.51
			C132.397,132.686,123.961,133.112,124.902,123.93z"/>
		<path style="fill-rule:evenodd;clip-rule:evenodd;fill:#8599B4;" d="M125.002,122.159l1.793-24.123
			c1.549-6.391,8.775-5.953,9.111-0.268l-2.683,25.55L125.002,122.159z"/>
		<path style="fill-rule:evenodd;clip-rule:evenodd;fill:#F6C4A9;" d="M113.676,37.518v13.104c-3.023,2.365-5.938,3.689-7.988,3.689
			c-2.053,0-4.967-1.324-7.989-3.689V37.518C97.698,26.95,113.676,26.95,113.676,37.518z"/>
		<path style="fill-rule:evenodd;clip-rule:evenodd;fill:#FFDDCB;" d="M105.688,51.056c-5.201,0-16.19-8.177-19.587-19.89
			C82.671,19.34,89.13,2.378,105.688,2.378c16.556,0,23.016,16.963,19.586,28.789C121.876,42.88,110.889,51.056,105.688,51.056z"/>
		<path style="fill-rule:evenodd;clip-rule:evenodd;fill:#425156;" d="M114.694,23.85c5.067-0.345,7.841,0.59,8.361,0.785
			c0.625,0.234,0.481,1.926-0.048,2.263c-0.53,0.337-0.964,1.686-2.217,3.371c-0.805,1.084-3.624,1.543-6.097,1.665v-0.474
			c2.021-0.093,4.139-0.454,5.06-1.089c1.869-1.287,2.047-4.025,0.674-5.3c-0.72-0.669-3.229-0.857-5.733-0.737V23.85z M96.68,23.85
			l0.212,0.014c5.201,0.386,6.309,1.396,6.839,1.349c0.619-0.056,1.289-0.141,1.921-0.141c0.633,0,1.35,0.083,1.992,0.141
			c0.53,0.048,1.638-0.963,6.839-1.349l0.212-0.014v0.484l-0.026,0.002c-2.512,0.122-5.79,0.705-6.433,2.145
			c-0.645,1.439,0.581,4.014,2.358,4.656c0.807,0.293,2.421,0.4,4.101,0.323v0.474c-1.374,0.068-2.64,0.033-3.395-0.058
			c-2.119-0.254-3.704-2.81-3.993-3.581c-0.649-1.732-2.59-1.732-3.239,0c-0.289,0.771-1.874,3.327-3.993,3.581
			c-0.755,0.091-2.022,0.126-3.395,0.058v-0.473c1.68,0.076,3.294-0.031,4.1-0.324c1.777-0.643,3.003-3.217,2.359-4.656
			c-0.643-1.439-3.921-2.022-6.434-2.145l-0.025-0.002V23.85z M88.319,24.635c0.52-0.195,3.294-1.13,8.36-0.785v0.484
			c-2.504-0.119-5.014,0.068-5.734,0.737c-1.372,1.274-1.194,4.013,0.675,5.3c0.921,0.635,3.038,0.996,5.06,1.09v0.473
			c-2.473-0.122-5.293-0.581-6.098-1.665c-1.252-1.685-1.686-3.034-2.215-3.371C87.837,26.561,87.693,24.87,88.319,24.635z"/>
		<path style="fill-rule:evenodd;clip-rule:evenodd;fill:#FFDDCB;" d="M90.945,25.072c0.724-0.671,3.248-0.858,5.76-0.735
			c2.513,0.122,5.791,0.705,6.434,2.145c0.644,1.439-0.582,4.014-2.358,4.656c-1.777,0.645-7.474,0.396-9.16-0.766
			C89.751,29.085,89.573,26.346,90.945,25.072z"/>
		<path style="fill-rule:evenodd;clip-rule:evenodd;fill:#FFDDCB;" d="M120.428,25.072c-0.722-0.671-3.247-0.858-5.76-0.735
			c-2.512,0.122-5.79,0.705-6.433,2.145c-0.645,1.439,0.581,4.014,2.358,4.656c1.776,0.645,7.474,0.396,9.16-0.766
			C121.623,29.085,121.801,26.346,120.428,25.072z"/>
		<path style="fill-rule:evenodd;clip-rule:evenodd;fill:#FF386A;" d="M99.716,39.265c2.65-2.565,4.718-0.642,6.266-0.642
			c1.548,0,3.614-1.924,6.266,0.642C110.822,46.032,101.606,46.241,99.716,39.265z"/>
		<path style="fill-rule:evenodd;clip-rule:evenodd;fill:#C8204A;" d="M99.716,39.265c2.65-2.565,4.718-0.642,6.266-0.642
			c1.548,0,3.615-1.924,6.266,0.642C108.193,41.262,102.444,40.33,99.716,39.265z"/>
		<path style="fill-rule:evenodd;clip-rule:evenodd;fill:#D56C2B;" d="M84.342,19.2c0.733-23.988,42.499-21.741,42.69,0
			C114.745,22.149,94.942,21.666,84.342,19.2z"/>
		
			<ellipse transform="matrix(-0.3946 -0.9188 0.9188 -0.3946 91.5203 118.8366)" style="fill-rule:evenodd;clip-rule:evenodd;fill:#FFDDCB;" cx="84.907" cy="29.27" rx="5.702" ry="3.297"/>
		
			<ellipse transform="matrix(0.3946 -0.9189 0.9189 0.3946 49.7395 134.0281)" style="fill-rule:evenodd;clip-rule:evenodd;fill:#FFDDCB;" cx="126.576" cy="29.27" rx="5.701" ry="3.297"/>
		<path style="fill-rule:evenodd;clip-rule:evenodd;fill:#D56C2B;" d="M116.559,14.212c8.412,5.359,8.905,12.558,9.249,18.121
			C129.59,27.62,129.915,10.933,116.559,14.212z"/>
		<path style="fill-rule:evenodd;clip-rule:evenodd;fill:#D56C2B;" d="M94.937,14.212c-8.412,5.359-8.905,12.558-9.25,18.121
			C81.905,27.62,81.579,10.933,94.937,14.212z"/>
		<path style="opacity:0.2;fill-rule:evenodd;clip-rule:evenodd;" d="M122.941,116.684l-4.389,80.55l0.018,0.03
			c0.682,0.986,1.416,1.875,2.153,2.697c0.101-0.023,0.199-0.047,0.295-0.068c0.597,0.668,1.197,1.293,1.773,1.888
			c-0.121-0.017-0.248-0.024-0.381-0.026c0.538,0.557,1.058,1.088,1.536,1.607c-0.007-0.011-0.016-0.021-0.026-0.03
			c1.139,1.232,2.051,2.398,2.456,3.671c0.487,1.527,0.333,2.552-0.21,3.22c-0.301,0.489-0.764,0.834-1.407,0.914
			c-0.101,0.012-0.2,0.023-0.299,0.034c-1.232,0.286-2.792,0.174-4.174-0.04l-0.112-0.018l-0.002-0.001h-0.002
			c-4.053-0.65-5.814-2.936-7.862-3.51c-4.655-1.307-4.774-3.982-2.892-10.338h-0.021l-1.738-57.201h-1.992V1.033
			c0.066,0.027,0.134,0.054,0.199,0.081c10.798-3.586,23.617,5.125,23.59,23.369c1.091,1.125,1.189,3.619,0.13,6.088
			c-0.24,0.558-0.521,1.073-0.831,1.537c-0.279,1.59-0.645,3.234-1.105,4.932c-7.341,27.032,6.921,23.81,8.812,19.08
			c-1.609,4.137-3.492,7.785-5.583,10.942l5.012,29.849c0.048,0.284,0.044,0.569-0.004,0.852v0.005l-2.606,24.833l0.09,0.014
			l-0.191,2.51c-0.62,5.841-5.793,7.422-7.683,3.611c-0.114,0.051-0.238,0.053-0.353-0.023l0,0
			c-0.333-0.225-0.713-0.422-0.683-0.816l0.436-5.84c0.01-0.118,0.053-0.24,0.118-0.35l1.614-21.715l-2.266-8.34L122.941,116.684z"
			/>
	</g>
</g>
<g>
</g>
<g>
</g>
<g>
</g>
<g>
</g>
<g>
</g>
<g>
</g>
<g>
</g>
<g>
</g>
<g>
</g>
<g>
</g>
<g>
</g>
<g>
</g>
<g>
</g>
<g>
</g>
<g>
</g>
</svg>
