<?xml version="1.0" encoding="iso-8859-1"?>
<!-- Generator: Adobe Illustrator 19.0.0, SVG Export Plug-In . SVG Version: 6.00 Build 0)  -->
<svg version="1.1" id="Layer_1" xmlns="http://www.w3.org/2000/svg" xmlns:xlink="http://www.w3.org/1999/xlink" x="0px" y="0px"
	 viewBox="0 0 444.818 444.818" style="enable-background:new 0 0 444.818 444.818;" xml:space="preserve">
<g>
	<path style="fill:#FCCF92;" d="M324.612,246.92c0.05,3.06-0.04,6.09-0.26,9.08c-0.39,5.43-1.21,10.73-2.41,15.89
		c-0.66,2.81-4.79,2.34-4.79-0.55v-0.22c0-5.15-0.41-10.2-1.21-15.12c-2.54-15.9-9.05-30.47-18.47-42.68
		c-7.78-10.1-17.56-18.57-28.74-24.85v4.9c0,11.74-8.66,21.44-19.93,23.12v11.12c0,5.84,1.89,11.47,5.32,16.09
		c1.03,1.4,2.21,2.71,3.52,3.9c2.73,2.48,5.15,5.3,7.19,8.4c3.2,4.85,5.47,10.37,6.55,16.3c0.47,2.57,0.71,5.22,0.71,7.93
		c0,0,4.08,66.46-22.12,140.44c-0.74,2.1-1.51,4.22-2.31,6.33c-1.94,5.17-4.03,10.37-6.29,15.58c-1.47,3.4-6.47,2.78-7.08-0.87
		c-0.68-4.08-1.47-9.06-2.29-14.71c-0.31-2.03-0.61-4.14-0.91-6.33c-4.44-31.92-9.26-79.89-3.69-110.55h-9.98
		c5.57,30.66,0.75,78.63-3.7,110.55c-0.31,2.19-0.61,4.3-0.91,6.33c-0.82,5.65-1.61,10.63-2.29,14.71c-0.6,3.65-5.6,4.27-7.07,0.87
		c-2.26-5.21-4.35-10.41-6.29-15.58c-0.8-2.11-1.57-4.23-2.31-6.33c-26.2-73.98-22.13-140.44-22.13-140.44
		c0-2.71,0.25-5.36,0.72-7.94c1.07-5.93,3.34-11.45,6.54-16.29c2.04-3.1,4.46-5.92,7.19-8.4c1.31-1.19,2.49-2.5,3.52-3.9
		c3.44-4.62,5.33-10.25,5.33-16.09v-11.12c-11.28-1.68-19.93-11.38-19.93-23.12v-4.91c-11.19,6.29-20.97,14.76-28.75,24.86
		c-9.42,12.22-15.93,26.79-18.47,42.68c-0.8,4.92-1.21,9.97-1.21,15.12v0.22c0.01,2.88-4.11,3.42-4.77,0.61
		c-1.21-5.18-2.03-10.5-2.43-15.95c-0.18-2.47-0.27-4.96-0.27-7.47c0-17.63,4.47-34.22,12.33-48.7c3.16-5.82,6.87-11.3,11.05-16.37
		c8.32-10.06,18.53-18.51,30.09-24.79c8.69-4.72,18.14-8.23,28.12-10.27c5.71-1.17,10.18-5.62,11.37-11.32l0.13-0.64
		c2.98,0.31,6.03,0.47,9.13,0.47s6.15-0.15,9.12-0.47l0.16,0.76c1.18,5.66,5.59,10.08,11.25,11.3c9.58,2.06,18.72,5.53,27.2,10.17
		c10.66,5.84,20.26,13.52,28.32,22.57c5.17,5.79,9.7,12.15,13.47,18.95C319.762,214.25,324.352,230.2,324.612,246.92z"/>
	<path style="fill:#ED4551;" d="M324.612,246.92c0.05,3.06-0.04,6.09-0.26,9.08h-8.41c-2.54-15.9-9.05-30.47-18.47-42.68
		c-7.78-10.1-17.56-18.57-28.74-24.85v4.9c0,11.74-8.66,21.44-19.93,23.12v11.12c0,5.84-52.78,5.84-52.78,0v-11.12
		c-11.28-1.68-19.93-11.38-19.93-23.12v-4.91c-11.19,6.29-20.97,14.76-28.75,24.86c-9.42,12.22-15.93,26.79-18.47,42.68h-8.41
		c-0.18-2.47-0.27-4.96-0.27-7.47c0-17.63,4.47-34.22,12.33-48.7c3.16-5.82,6.87-11.3,11.05-16.37
		c8.32-10.06,18.53-18.51,30.09-24.79l0,0c31.039,12.009,65.441,12.009,96.48,0l0,0c10.66,5.84,20.26,13.52,28.32,22.57
		c5.17,5.79,9.7,12.15,13.47,18.95C319.762,214.25,324.352,230.2,324.612,246.92z"/>
	<path style="opacity:0.29;fill:#4D4D4D;enable-background:new    ;" d="M141.272,186.37l16.89,15.14
		c-3.93,3.62-7.55,7.57-10.82,11.81c-7.05-5.86-12.12-10.76-14.82-13.49c2.15-3.96,4.55-7.75,7.18-11.37
		C140.212,187.76,140.732,187.06,141.272,186.37z"/>
	<path style="opacity:0.29;fill:#4D4D4D;enable-background:new    ;" d="M311.932,200.19c-2.78,2.79-7.71,7.52-14.46,13.13
		c-2.49-3.24-5.19-6.31-8.08-9.18l15.17-15.38C307.272,192.4,309.732,196.22,311.932,200.19z"/>
	<path style="fill:#ED4551;" d="M298.342,346.12v73.21h-151.87v-73.21c0-21.18,4.18-39.68,12.09-56.66
		c6.912-14.849,16.85-30.344,28.61-41.86c1.848-1.81,3.958-3.719,5.82-5.6h58.83c1.862,1.881,4.06,3.704,5.82,5.6
		C284.034,276.035,298.342,306.408,298.342,346.12z"/>
	<path style="opacity:0.29;fill:#4D4D4D;enable-background:new    ;" d="M194.382,419.33h19.52c-0.06,0.45-0.12,0.9-0.18,1.34
		c-0.31,2.19-0.61,4.3-0.91,6.33h-15.65c-0.8-2.11-1.57-4.23-2.31-6.33C194.692,420.22,194.532,419.78,194.382,419.33z"/>
	<path style="opacity:0.29;fill:#4D4D4D;enable-background:new    ;" d="M250.442,419.33c-0.15,0.45-0.31,0.89-0.47,1.34
		c-0.74,2.1-1.51,4.22-2.31,6.33h-15.66c-0.31-2.03-0.61-4.14-0.91-6.33c-0.06-0.44-0.12-0.89-0.18-1.34H250.442z"/>
	<path style="opacity:0.29;fill:#4D4D4D;enable-background:new    ;" d="M235.512,144.34c-4.07,1.53-8.47,2.36-13.07,2.36
		c-4.62,0-9.05-0.84-13.14-2.38c1.93-1.95,3.3-4.45,3.88-7.24l0.167-1.058c2.98,0.31,5.964,0.573,9.064,0.573
		c3.1,0,6.06-0.15,9.029-0.47l0.279,1.075C232.292,139.95,233.632,142.4,235.512,144.34z"/>
	<path style="fill:#471902;" d="M281.412,370h-118c0-2.42,0.04-4.87,0.11-7.33c0.06-2.21,0.15-4.43,0.27-6.67
		c3.35-62.66,28.31-132.67,58.62-132.67c30.3,0,55.27,70.01,58.62,132.67c0.12,2.24,0.21,4.46,0.27,6.67
		C281.372,365.13,281.412,367.58,281.412,370z"/>
	<path style="fill:#752C04;" d="M257.643,247.6c-71.64,0-127.36-61.1-127.36-61.1c2.74-3.87,6-7.46,9.57-10.77
		c11.94-11.08,27.4-19.08,38.95-24.06c9.58-4.12,16.48-6.17,16.48-6.17c12.5,52,57.5,81.5,57.5,81.5l1.52,6.45l1.96,8.28
		L257.643,247.6z"/>
	<path style="fill:#93AA00;" d="M256.263,241.73c-16.75-3.85-75.921-16.499-116.41-66c11.94-11.08,27.4-19.08,38.95-24.06
		c4.51,13.08,24.74,63.09,75.5,81.78L256.263,241.73z"/>
	<path style="fill:#752C04;" d="M187.173,247.6c71.64,0,127.36-61.1,127.36-61.1c-2.74-3.87-6-7.46-9.57-10.77
		c-11.94-11.08-27.4-19.08-38.95-24.06c-9.58-4.12-16.48-6.17-16.48-6.17c-12.5,52-57.5,81.5-57.5,81.5l-1.52,6.45l-1.96,8.28
		L187.173,247.6z"/>
	<path style="fill:#93AA00;" d="M188.553,241.73c16.75-3.85,75.921-16.499,116.41-66c-11.94-11.08-27.4-19.08-38.95-24.06
		c-4.51,13.08-24.74,63.09-75.5,81.78L188.553,241.73z"/>
	<path style="fill:#D6384C;" d="M281.032,356h-18.901v-14.061c4.715-0.857,8.305-4.984,8.305-9.942
		c0-5.576-4.538-10.113-10.114-10.113c-5.576,0-10.113,4.537-10.113,10.113c0,4.958,3.589,9.086,8.304,9.942V356h-15.336v-7.707
		c3.199-0.81,5.577-3.706,5.577-7.154c0-4.073-3.314-7.387-7.387-7.387s-7.387,3.314-7.387,7.387c0,3.448,2.378,6.343,5.577,7.154
		V356h-15.336v-14.061c4.715-0.857,8.304-4.984,8.304-9.942c0-5.576-4.537-10.113-10.113-10.113s-10.113,4.537-10.113,10.113
		c0,4.958,3.589,9.086,8.304,9.942V356h-15.336v-7.707c3.2-0.81,5.577-3.706,5.577-7.154c0-4.073-3.313-7.387-7.387-7.387
		c-4.073,0-7.387,3.314-7.387,7.387c0,3.448,2.378,6.343,5.577,7.154V356h-15.336v-14.061c4.715-0.857,8.304-4.984,8.304-9.942
		c0-5.576-4.537-10.113-10.113-10.113s-10.113,4.537-10.113,10.113c0,4.958,3.589,9.086,8.304,9.942V356h-18.901
		c-0.12,2.24-0.21,4.46-0.27,6.67h117.78C281.242,360.46,281.302,358.428,281.032,356z M253.827,331.996
		c0-3.581,2.914-6.494,6.494-6.494c3.582,0,6.495,2.913,6.495,6.494s-2.914,6.495-6.495,6.495
		C256.741,338.491,253.827,335.577,253.827,331.996z M237.599,341.139c0-2.077,1.69-3.768,3.768-3.768s3.768,1.691,3.768,3.768
		c0,2.078-1.69,3.768-3.768,3.768S237.599,343.217,237.599,341.139z M215.918,331.996c0-3.581,2.914-6.494,6.494-6.494
		c3.581,0,6.494,2.913,6.494,6.494s-2.914,6.495-6.494,6.495S215.918,335.577,215.918,331.996z M199.69,341.139
		c0-2.077,1.691-3.768,3.768-3.768s3.768,1.691,3.768,3.768c0,2.078-1.69,3.768-3.768,3.768S199.69,343.217,199.69,341.139z
		 M178.008,331.996c0-3.581,2.914-6.494,6.495-6.494s6.494,2.913,6.494,6.494s-2.913,6.495-6.494,6.495
		C180.922,338.491,178.008,335.577,178.008,331.996z"/>
	<g>
		<polygon style="fill:#471902;" points="298.342,393.33 298.342,397.33 280.162,397.33 280.162,408 253.862,408 253.862,397.33 
			235.562,397.33 235.562,408 209.252,408 209.252,397.33 190.952,397.33 190.952,408 164.652,408 164.652,397.33 146.472,397.33 
			146.472,393.33 168.652,393.33 168.652,404 186.952,404 186.952,393.33 213.252,393.33 213.252,404 231.562,404 231.562,393.33 
			257.862,393.33 257.862,404 276.162,404 276.162,393.33 		"/>
		<g>
			<circle style="fill:#471902;" cx="178.007" cy="396.33" r="3"/>
			<circle style="fill:#471902;" cx="222.407" cy="396.33" r="3"/>
			<circle style="fill:#471902;" cx="266.807" cy="396.33" r="3"/>
		</g>
		<g>
			<circle style="fill:#471902;" cx="154.482" cy="405" r="3"/>
			<circle style="fill:#471902;" cx="199.749" cy="405" r="3"/>
			<circle style="fill:#471902;" cx="245.016" cy="405" r="3"/>
			<circle style="fill:#471902;" cx="290.282" cy="405" r="3"/>
		</g>
	</g>
	<path style="fill:#471902;" d="M197.162,427h15.65c-0.82,5.65-1.61,10.63-2.29,14.71c-0.6,3.65-5.6,4.27-7.07,0.87
		C201.192,437.37,199.102,432.17,197.162,427z"/>
	<path style="fill:#471902;" d="M247.662,427c-1.94,5.17-4.03,10.37-6.29,15.58c-1.47,3.4-6.47,2.78-7.08-0.87
		c-0.68-4.08-1.47-9.06-2.29-14.71H247.662z"/>
	<rect x="163.412" y="370" style="opacity:0.29;fill:#4D4D4D;enable-background:new    ;" width="118" height="5.333"/>
	<path style="fill:#333333;" d="M227.272,129c0,0,65.265,14,65.265-3.587c0-7.293-2.714-7.293-2.714-14.587
		c0-7.288,10-7.288,10-14.577c0-7.291-10-7.291-10-14.581c0-7.288,10-7.288,10-14.576c0-3.038-1.737-6.075-3.762-8.586
		c-4.357-5.399-8.392-11.043-11.91-17.022C270.32,17.978,247.821,0,222.412,0c-19.07,0-36.54,10.14-49.91,25.16
		c-2.971,3.333-6.506,8.637-9.618,13.691c-4.167,6.765-8.794,13.23-13.872,19.341c-2.135,2.569-4.021,5.734-4.021,8.9
		c0,7.288,10,7.288,10,14.576c0,7.291-10,7.291-10,14.581c0,7.288,10,7.288,10,14.577c0,7.294-2.714,7.294-2.714,14.587
		c0,17.587,65.265,3.587,65.265,3.587H227.272z"/>
	<path style="fill:#FCCF92;" d="M283.282,85.11c0,30.51-22.46,48.31-51.75,51.33c-2.97,0.32-6.02,0.47-9.12,0.47
		c-3.1,0-6.15-0.16-9.13-0.47c-1.49-0.15-2.97-0.34-4.42-0.57c-27.1-4.29-47.33-21.8-47.33-50.76c0-8.84,1.88-18.07,5.27-26.87
		c4.52,1.45,9.35,2.24,14.36,2.24c17.81,0,33.31-9.93,41.24-24.57c7.94,14.64,23.44,24.57,41.25,24.57c5.01,0,9.84-0.79,14.36-2.24
		C281.402,67.05,283.282,76.27,283.282,85.11z"/>
	<path style="fill:#FFFFFF;" d="M234.364,83.226c0,9.697-5.352,17.558-11.954,17.558c-6.602,0-11.954-7.861-11.954-17.558H234.364z"
		/>
	<g>
		<path d="M202.06,76.688c0,0-0.303-0.04-0.778-0.17c-0.234-0.078-0.532-0.14-0.829-0.189c-0.299-0.06-0.603-0.132-0.969-0.186
			c-0.345-0.076-0.715-0.135-1.097-0.183c-0.368-0.082-0.776-0.08-1.158-0.155c-0.403-0.009-0.794-0.077-1.2-0.08
			c-0.401-0.034-0.808-0.022-1.213-0.038c-0.405,0.017-0.811,0.008-1.212,0.041c-0.406,0.007-0.797,0.069-1.199,0.082
			c-0.382,0.074-0.79,0.073-1.157,0.155c-0.382,0.048-0.752,0.107-1.097,0.183c-0.361,0.049-0.682,0.133-0.987,0.198
			c-0.309,0.06-0.594,0.111-0.817,0.178c-0.461,0.116-0.775,0.164-0.775,0.164s0.059-0.289,0.251-0.763
			c0.092-0.242,0.22-0.528,0.416-0.818c0.187-0.301,0.415-0.637,0.719-0.948c0.148-0.161,0.311-0.322,0.481-0.492
			c0.18-0.151,0.376-0.296,0.578-0.452c0.401-0.321,0.882-0.551,1.382-0.808c0.517-0.196,1.06-0.427,1.642-0.519
			c0.574-0.15,1.177-0.162,1.776-0.201c0.599,0.039,1.201,0.054,1.776,0.203c0.581,0.096,1.125,0.322,1.641,0.521
			c0.499,0.257,0.981,0.488,1.381,0.808c0.202,0.156,0.398,0.299,0.578,0.452c0.17,0.17,0.334,0.329,0.481,0.491
			c0.299,0.306,0.545,0.654,0.737,0.96c0.208,0.3,0.323,0.576,0.404,0.807C201.989,76.391,202.06,76.688,202.06,76.688z"/>
		<path d="M257.25,76.688c0,0-0.303-0.04-0.778-0.17c-0.234-0.078-0.532-0.14-0.829-0.189c-0.299-0.06-0.603-0.132-0.969-0.186
			c-0.345-0.076-0.715-0.135-1.097-0.183c-0.368-0.082-0.776-0.08-1.158-0.155c-0.403-0.009-0.794-0.077-1.2-0.08
			c-0.401-0.034-0.808-0.022-1.213-0.038c-0.405,0.017-0.811,0.008-1.212,0.041c-0.406,0.007-0.797,0.069-1.199,0.082
			c-0.382,0.074-0.79,0.073-1.157,0.155c-0.382,0.048-0.752,0.107-1.097,0.183c-0.361,0.049-0.682,0.133-0.987,0.199
			c-0.309,0.06-0.594,0.111-0.817,0.178c-0.461,0.116-0.775,0.164-0.775,0.164s0.059-0.289,0.251-0.763
			c0.092-0.242,0.22-0.528,0.416-0.818c0.187-0.301,0.415-0.637,0.719-0.948c0.148-0.161,0.311-0.322,0.481-0.492
			c0.18-0.151,0.376-0.296,0.578-0.452c0.401-0.321,0.882-0.551,1.382-0.808c0.517-0.196,1.06-0.427,1.642-0.519
			c0.574-0.15,1.177-0.162,1.776-0.201c0.599,0.039,1.201,0.054,1.776,0.203c0.581,0.096,1.125,0.322,1.641,0.521
			c0.499,0.257,0.981,0.488,1.381,0.808c0.202,0.156,0.398,0.299,0.578,0.452c0.17,0.17,0.334,0.329,0.481,0.491
			c0.299,0.306,0.545,0.654,0.737,0.96c0.208,0.3,0.323,0.576,0.404,0.807C257.18,76.391,257.25,76.688,257.25,76.688z"/>
	</g>
	<path style="fill:#ED4551;" d="M185.233,34.714c0-2.523-2.045-4.569-4.569-4.569c-0.252,0-0.498,0.026-0.74,0.065
		c0.198-0.143,0.391-0.298,0.569-0.477c1.784-1.784,1.784-4.677,0-6.461s-4.677-1.784-6.461,0c-0.179,0.178-0.334,0.371-0.477,0.569
		c0.039-0.241,0.065-0.487,0.065-0.74c0-2.523-2.046-4.569-4.569-4.569s-4.569,2.045-4.569,4.569c0,0.252,0.026,0.498,0.065,0.74
		c-0.143-0.198-0.298-0.391-0.477-0.569c-1.784-1.784-4.677-1.784-6.461,0s-1.784,4.677,0,6.461
		c0.178,0.178,0.371,0.334,0.569,0.477c-0.241-0.039-0.487-0.065-0.74-0.065c-2.523,0-4.569,2.045-4.569,4.569
		s2.046,4.569,4.569,4.569c0.253,0,0.498-0.026,0.74-0.065c-0.199,0.143-0.391,0.298-0.569,0.477c-1.784,1.784-1.784,4.677,0,6.461
		s4.677,1.784,6.461,0c0.178-0.178,0.334-0.371,0.477-0.569c-0.039,0.241-0.065,0.487-0.065,0.74c0,2.523,2.045,4.569,4.569,4.569
		c2.523,0,4.569-2.045,4.569-4.569c0-0.252-0.026-0.498-0.065-0.74c0.143,0.198,0.298,0.391,0.477,0.569
		c1.784,1.784,4.677,1.784,6.461,0s1.784-4.677,0-6.461c-0.178-0.178-0.371-0.334-0.569-0.477c0.241,0.039,0.487,0.065,0.74,0.065
		C183.188,39.283,185.233,37.237,185.233,34.714z"/>
	<circle style="fill:#FBB03B;" cx="169.052" cy="34.714" r="7.333"/>
</g>
<g>
</g>
<g>
</g>
<g>
</g>
<g>
</g>
<g>
</g>
<g>
</g>
<g>
</g>
<g>
</g>
<g>
</g>
<g>
</g>
<g>
</g>
<g>
</g>
<g>
</g>
<g>
</g>
<g>
</g>
</svg>
