<?xml version="1.0" encoding="iso-8859-1"?>
<!-- Generator: Adobe Illustrator 18.0.0, SVG Export Plug-In . SVG Version: 6.00 Build 0)  -->
<!DOCTYPE svg PUBLIC "-//W3C//DTD SVG 1.1//EN" "http://www.w3.org/Graphics/SVG/1.1/DTD/svg11.dtd">
<svg version="1.1" id="Capa_1" xmlns="http://www.w3.org/2000/svg" xmlns:xlink="http://www.w3.org/1999/xlink" x="0px" y="0px"
	 viewBox="0 0 391.574 391.574" style="enable-background:new 0 0 391.574 391.574;" xml:space="preserve">
<g>
	<path style="fill:#A86436;" d="M112.956,155.508c0,0,28.336,1.506,16.667-22.666c-18.667-38.667-24.128-128.272,39-132.667
		C273.956-7.159,227.623,218.842,112.956,155.508z"/>
	<g>
		<g>
			
				<ellipse transform="matrix(0.9926 -0.1218 0.1218 0.9926 -10.6526 31.3586)" style="fill:#FFB37F;" cx="251.097" cy="102.787" rx="13.666" ry="17.002"/>
			
				<ellipse transform="matrix(0.9987 -0.0509 0.0509 0.9987 -5.0561 7.3051)" style="fill:#F29555;" cx="140.765" cy="102.83" rx="13.667" ry="17.001"/>
		</g>
		<g>
			<path style="fill:#FFB37F;" d="M185.211,157.617c-2.245-4.258-7.516-5.889-11.771-3.646c-0.546,0.287-13.523,7.217-26.307,21.541
				c-11.458,12.842-19.977,29.074-23.842,45.859c-2.611,11.332-7.729,37.912,4.175,46.301c12.182,8.584,14.336-7.02,12.996-15.32
				c7.411,7.637,10.389,2.771,7.135-4.918c-4.723-11.154-9.169-14.949-5.646-27.725c3.284-11.914,9.632-22.879,17.771-32.127
				c10.665-12.117,21.663-18.098,21.863-18.205C185.827,167.127,187.45,161.867,185.211,157.617z"/>
			<path style="fill:#FFC695;" d="M277.787,240.701c-0.807-5.311-2.023-10.338-2.826-14.146
				c-4.082-19.385-12.652-37.314-26.264-51.814c-13.143-14-26.29-20.594-26.843-20.869c-4.313-2.135-9.54-0.371-11.676,3.941
				c-2.131,4.307-0.376,9.523,3.923,11.666c0.203,0.1,11.349,5.803,22.316,17.645c7.996,8.635,14.195,18.721,17.928,29.893
				c3.291,9.852,2.69,17.387-1.209,26.865c-2.576,6.262-4.484,19.742,5.293,9.145c-1.129,8.334,1.418,23.873,13.379,14.988
				C279.375,262.389,279.353,251.01,277.787,240.701z"/>
		</g>
		<path style="fill:#F29555;" d="M228.58,158.877c-4.938-5.387-21.75-13.518-30.573-11.148c-8.824-2.369-25.637,5.762-30.574,11.148
			c-7.289,7.953-12.305,21.699-10.25,86.697h40.703h0.242h44.7C244.885,180.576,235.869,166.83,228.58,158.877z"/>
		<path style="fill:#FFC695;" d="M157.091,200.175c-0.505,11.434-0.516,26.174,0.092,45.399h85.646
			c0.608-19.225,0.248-33.966-0.75-45.399H157.091z"/>
		<path style="fill:#FFD4DD;" d="M242.39,204.175c-2.119-30.409-8.435-39.432-13.811-45.298c-1.055-1.15-2.655-2.426-4.6-3.699
			c-5.466,7.777-14.492,12.943-24.549,12.943c-10.585,0-20.029-5.721-25.38-14.189c-2.859,1.668-5.218,3.418-6.619,4.945
			c-5.376,5.866-9.515,14.889-10.493,45.298H242.39z"/>
		<g>
			<g>
				<path style="fill:#FFC695;" d="M199.015,32.04c-15.094,0.7-30.754,4.86-42,12.536c-16.568,11.31-22.661,34.931-20.242,52.997
					c6.365,47.543,51.946,58.033,62.242,58.861V32.04z"/>
				<path style="fill:#FFC695;" d="M197.999,32.04c15.092,0.7,29.754,4.86,40.999,12.536c16.568,11.31,19.357,34.804,18.242,52.997
					c-1.512,24.633-28.178,57.965-59.241,58.861V32.04z"/>
			</g>
			<g>
				<path style="fill:#FFC695;" d="M157.302,244.574c1.124,11.6,4.47,74.742,19.758,126h12v-88h18.045l3.01,87h11
					c11.888-49.918,20.296-111.267,21.659-125H157.302z"/>
				<path style="fill:#FF789F;" d="M189.059,369.574h-12c0,0-15.996,5.631-29,22h42L189.059,369.574z"/>
				<path style="fill:#FF789F;" d="M208.954,369.574h13c0,0,18.774,9.297,24.999,22h-37.999V369.574z"/>
				<path style="fill:#FFABBF;" d="M153.515,385.455c-1.842,1.85-3.677,3.881-5.455,6.119h42l-0.278-6.119H153.515z"/>
				<path style="fill:#FFABBF;" d="M208.954,385.455v6.119h37.999c-1.053-2.146-2.469-4.195-4.088-6.119H208.954z"/>
			</g>
			<g>
				<path style="fill:#2D1407;" d="M158.509,259.508c1.854,22.368,5.918,63.435,15.649,100.667h14.901v-77.601h18.045l2.685,77.601
					h13.494c8.268-36.922,14.602-77.897,17.661-100.667H158.509z"/>
			</g>
		</g>
		<g>
			<circle style="fill:#333331;" cx="167.881" cy="98.73" r="6.487"/>
			<circle style="fill:#333331;" cx="228.13" cy="98.73" r="6.487"/>
		</g>
		<path style="fill:#F29555;" d="M207.339,114.241c0,2.762-2.335,5.001-5.215,5.001h-8.236c-2.881,0-5.215-2.239-5.215-5.001l0,0
			c0-2.761,2.334-5,5.215-5h8.236C205.004,109.241,207.339,111.481,207.339,114.241L207.339,114.241z"/>
		<path style="opacity:0.4;fill:#FF571F;" d="M211.544,125.598c-1.639-0.203-3.127,0.949-3.346,2.578
			c-0.115,0.779-1.331,6.977-10.192,7.398c-8.861-0.422-10.077-6.619-10.192-7.398c-0.219-1.629-1.707-2.781-3.346-2.578
			c-1.645,0.205-2.811,1.705-2.605,3.35c0.543,4.338,4.627,12.107,15.977,12.602v0.023c0.059-0.002,0.109-0.01,0.167-0.012
			c0.058,0.002,0.108,0.01,0.167,0.012v-0.023c11.35-0.494,15.434-8.264,15.976-12.602
			C214.354,127.303,213.188,125.803,211.544,125.598z"/>
		<rect x="155.765" y="203.455" style="fill:#FF789F;" width="87.332" height="12.666"/>
	</g>
	<path style="fill:#C67A46;" d="M136.623,87.842c0,0,8.334-15.667,31-18.334c22.666-2.667,60.666,25,89.333,25.667
		c0,0,17.001-78.334-62.333-78.334C115.289,16.841,136.623,87.842,136.623,87.842z"/>
	<rect x="132.623" y="55.175" style="fill:#FF789F;" width="125.333" height="17.333"/>
	<g>
		<path style="fill:#FF789F;" d="M141.485,233.508c-0.923-3.211-1.139-6.628-0.136-11.333h-20.241
			c-0.685,3.032-1.501,6.992-2.136,11.333H141.485z"/>
		<path style="fill:#FF789F;" d="M256.138,233.508h22.326c-0.536-2.565-1.077-4.934-1.503-6.953c-0.31-1.47-0.653-2.928-1.015-4.38
			h-20.193C256.572,226.125,256.68,229.789,256.138,233.508z"/>
	</g>
	<rect x="155.625" y="247.508" style="fill:#5E453B;" width="88.667" height="12.667"/>
</g>
<g>
</g>
<g>
</g>
<g>
</g>
<g>
</g>
<g>
</g>
<g>
</g>
<g>
</g>
<g>
</g>
<g>
</g>
<g>
</g>
<g>
</g>
<g>
</g>
<g>
</g>
<g>
</g>
<g>
</g>
</svg>
