<?xml version="1.0" encoding="iso-8859-1"?>
<!-- Generator: Adobe Illustrator 19.0.0, SVG Export Plug-In . SVG Version: 6.00 Build 0)  -->
<svg version="1.1" id="Layer_1" xmlns="http://www.w3.org/2000/svg" xmlns:xlink="http://www.w3.org/1999/xlink" x="0px" y="0px"
	 viewBox="0 0 512 512" style="enable-background:new 0 0 512 512;" xml:space="preserve">
<path style="fill:#CCCCCC;" d="M83.251,442.052L0,512l69.948-83.251c3.355-3.992,9.31-4.509,13.303-1.155
	c3.992,3.355,4.51,9.31,1.155,13.302C84.06,441.307,83.646,441.715,83.251,442.052z"/>
<path style="fill:#8ED7E0;" d="M406.561,220.327L291.672,105.438L103.427,293.684c-18.173,18.173-24.082,45.274-15.123,69.363
	l6.31,16.967l-36.7,36.7l37.374,37.374l36.7-36.7l16.967,6.31c24.089,8.959,51.19,3.05,69.363-15.123L406.561,220.327z"/>
<path style="fill:#7CC3D1;" d="M102.238,376.977l0.958,11.618l-36.698,36.698l-8.585-8.585l36.698-36.698l-6.306-16.965
	c-8.966-24.096-3.051-51.189,15.121-69.361l188.242-188.242l26.402,26.402L129.828,320.086
	C111.656,338.258,100.881,360.491,102.238,376.977z"/>
<rect x="365.612" y="30.874" transform="matrix(-0.7071 -0.7071 0.7071 -0.7071 612.7892 470.2271)" style="fill:#CCCCCC;" width="76.339" height="154.653"/>
<rect x="372.985" y="13.106" transform="matrix(-0.7071 -0.7071 0.7071 -0.7071 595.0377 427.3377)" style="fill:#B3B3B3;" width="26.077" height="154.653"/>
<path style="fill:#F7A872;" d="M140.932,317.086l47.558-47.558l105.399,2.564l-98.976,98.976
	c-10.558,10.558-26.302,13.991-40.295,8.786l0,0c-10.401-3.868-18.603-12.07-22.471-22.471l0,0
	C126.942,343.387,130.375,327.644,140.932,317.086z"/>
<path style="fill:#7CC3D1;" d="M435.629,258.802c-2.407,0-4.815-0.918-6.651-2.755L255.952,83.021c-3.674-3.674-3.674-9.63,0-13.302
	c3.674-3.674,9.63-3.674,13.302,0L442.28,242.745c3.673,3.674,3.673,9.63,0,13.302C440.443,257.884,438.037,258.802,435.629,258.802
	z"/>
<path style="fill:#B3B3B3;" d="M502.594,107.061c-2.407,0-4.815-0.918-6.651-2.755l-88.25-88.249c-3.674-3.674-3.674-9.63,0-13.302
	c3.673-3.674,9.63-3.674,13.302,0l88.25,88.249c3.674,3.674,3.674,9.63,0,13.302C507.408,106.143,505,107.061,502.594,107.061z"/>
<g>
</g>
<g>
</g>
<g>
</g>
<g>
</g>
<g>
</g>
<g>
</g>
<g>
</g>
<g>
</g>
<g>
</g>
<g>
</g>
<g>
</g>
<g>
</g>
<g>
</g>
<g>
</g>
<g>
</g>
</svg>
